<svg width="32" height="32" viewBox="0 0 256 256"><path fill="currentColor" d="m214.8 136.9l-39.2-50.4a5.2 5.2 0 0 0-1-1.1A31.5 31.5 0 0 0 152 76a40 40 0 1 0-48 0a31.5 31.5 0 0 0-22.6 9.4a5.2 5.2 0 0 0-1 1.1l-39.2 50.4a24 24 0 0 0 33.9 33.9l3.8-2.9L63 218.1a23.5 23.5 0 0 0-.4 17.5a24 24 0 0 0 43.9 2.7l21.5-33.8l21.5 33.8a23.9 23.9 0 0 0 13.2 11.6a23.3 23.3 0 0 0 8.2 1.5a24 24 0 0 0 22.1-33.3l-15.9-50.2l3.8 2.9a24 24 0 0 0 33.9-33.9ZM128 28a16 16 0 1 1-16 16a16 16 0 0 1 16-16Zm68.1 124.3l-34.7-27.1a12 12 0 0 0-18.8 13.1l27.7 87.6l.6 1.5a10 10 0 0 0-.8-1.4l-32-50.4a12 12 0 0 0-20.2 0l-32 50.4a10 10 0 0 0-.8 1.4l.6-1.5l27.7-87.6a11.9 11.9 0 0 0-4.6-13.4a11.3 11.3 0 0 0-6.8-2.2a12.7 12.7 0 0 0-7.4 2.5l-34.7 27.1l-1.2 1l1-1.2l39.1-50.2a8.1 8.1 0 0 1 5.2-1.9h48a8.1 8.1 0 0 1 5.2 1.9l39.1 50.2l1 1.2Z"/></svg>